<svg width="755" height="502" viewBox="0 0 755 502" fill="none" xmlns="http://www.w3.org/2000/svg">
<path opacity="0.8" d="M614.992 101.288L622 105.146L453 412.146L445.992 408.288L614.992 101.288Z" fill="black"/>
<path d="M453 474.146H445V407.146H453V474.146Z" fill="black"/>
<path d="M356 458.146H348V391.146H356V458.146Z" fill="black"/>
<path d="M445.982 466.207L445 474.146L348 462.146L348.982 454.207L445.982 466.207Z" fill="black"/>
<path d="M702.1 368.69L705 376.146L453 474.146L450.1 466.69L702.1 368.69Z" fill="black"/>
<path d="M707.004 65.8882L715 66.1462L705 376.146L697.004 375.888L707.004 65.8882Z" fill="black"/>
<path d="M554 74.1461V66.1461L710 66.1461V74.1461L554 74.1461Z" fill="black"/>
<path d="M710.225 74.0597L617.053 113.332L613.947 105.96L707.117 66.687L710.225 74.0597Z" fill="black"/>
<path d="M454.073 404.218L453 412.146L357 399.146L358.074 391.218L454.073 404.218Z" fill="black"/>
<path d="M555.879 64L561 70.1458L513 110.146L507.879 104L555.879 64Z" fill="black"/>
<path d="M299 456.146H291V389.146H299V456.146Z" fill="black"/>
<path d="M202 440.146H194V373.146H202V440.146Z" fill="black"/>
<path d="M291.982 448.207L291 456.146L194 444.146L194.982 436.207L291.982 448.207Z" fill="black"/>
<path d="M400 56.1461V48.1461L556 48.1461V56.1461L400 56.1461Z" fill="black"/>
<path d="M556.225 56.0597L463.053 95.3319L459.947 87.9598L553.117 48.687L556.225 56.0597Z" fill="black"/>
<path d="M300.073 386.218L299 394.146L203 381.146L204.074 373.218L300.073 386.218Z" fill="black"/>
<path d="M401.879 46L407 52.1458L359 92.146L353.879 86.0003L401.879 46Z" fill="black"/>
<path d="M146 438.146H138V371.146H146V438.146Z" fill="black"/>
<path d="M49 422.146H41L41 355.146H49L49 422.146Z" fill="black"/>
<path d="M138.982 430.207L138 438.146L41 426.146L41.9822 418.207L138.982 430.207Z" fill="black"/>
<path d="M202.973 65.322L210 69.1461L50 363.146L42.9732 359.322L202.973 65.322Z" fill="black"/>
<path d="M247 38.1461V30.1461L403 30.1461V38.1461L247 38.1461Z" fill="black"/>
<path d="M403.225 38.0597L310.053 77.3319L306.947 69.9599L400.117 30.6871L403.225 38.0597Z" fill="black"/>
<path d="M147.073 368.218L146 376.146L50 363.146L51.0736 355.218L147.073 368.218Z" fill="black"/>
<path d="M248.879 28L254 34.1458L206 74.146L200.879 68.0003L248.879 28Z" fill="black"/>
<path d="M352.43 429.57L355 437.146L299 456.146L296.43 448.57L352.43 429.57Z" fill="black"/>
<path d="M199.43 411.57L202 419.146L146 438.146L143.43 430.57L199.43 411.57Z" fill="black"/>
<path d="M562 68.1461H554V48.1461H562V68.1461Z" fill="black"/>
<path d="M405 52.1461H397V32.1461H405V52.1461Z" fill="black"/>
<line x1="143.516" y1="371.181" x2="310.516" y2="75.1805" stroke="black" stroke-width="8"/>
<line x1="295.516" y1="386.181" x2="462.516" y2="90.1805" stroke="black" stroke-width="8"/>
<line x1="194.487" y1="382.234" x2="354.487" y2="88.234" stroke="black" stroke-width="8"/>
<line x1="351.487" y1="400.234" x2="511.487" y2="106.234" stroke="black" stroke-width="8"/>
<rect x="616.682" y="111.364" width="77.8091" height="80.3777" rx="18.5" transform="rotate(-7.09609 616.682 111.364)" fill="#FFFF99" stroke="black" stroke-width="3"/>
<path d="M614 87.1344L680.485 73.3364L688.385 111.402L621.9 125.2L614 87.1344Z" fill="#0F0F0F"/>
<path d="M648.008 119.578C648.008 122.616 645.993 125.078 643.508 125.078C641.023 125.078 639.008 122.616 639.008 119.578C639.008 116.541 641.023 114.078 643.508 114.078C645.993 114.078 648.008 116.541 648.008 119.578Z" fill="#FFFF99"/>
<path d="M669.807 116.017C669.294 119.011 666.893 121.099 664.443 120.68C661.994 120.261 660.423 117.494 660.935 114.5C661.448 111.506 663.849 109.418 666.298 109.837C668.748 110.256 670.319 113.023 669.807 116.017Z" fill="#FFFF99"/>
<path d="M653.242 38.3377C654.122 38.5217 655.538 39.0274 656.447 39.217C656.678 39.2614 656.884 39.3081 657.067 39.3497C658.43 39.726 658.233 39.3956 659.088 39.6955C659.248 39.7608 659.046 39.8304 659.176 39.9097C660.063 40.4495 660.693 41.3853 661.112 41.9024C661.392 42.248 661.557 42.0553 661.768 42.2772C662.079 42.6111 662.132 43.119 662.253 43.3013C662.687 43.9556 663.087 44.3788 663.377 44.7965C663.553 45.0541 663.704 45.3329 663.823 45.6328C663.85 45.5597 663.881 45.5034 663.909 45.4363C664.659 46.9607 664.781 48.2893 664.89 49.383C664.936 49.3263 664.982 49.2707 665.028 49.2124C665.119 50.5009 664.537 50.3452 665.704 50.1662C665.752 50.2495 665.806 50.3364 665.85 50.4131C665.247 50.4245 664.845 51.1683 664.78 51.9223C664.775 51.986 665.408 52.2351 664.714 52.3043C664.897 52.3665 665.021 52.3971 665.181 52.4386C665.136 52.4803 665.091 52.5223 665.047 52.5644C664.928 52.7787 664.803 52.9868 664.672 53.1868C664.722 53.309 664.768 53.4284 664.814 53.55C664.952 53.5527 665.091 53.5217 665.229 53.5476C665.33 54.1529 665.188 55.3173 665.187 55.7448C665.206 56.8114 665.456 57.9057 664.953 58.6295C664.939 59.012 665.26 58.6808 665.143 59.2327C664.999 59.275 664.861 59.313 664.712 59.3562C665.238 59.9044 664.859 59.9452 664.623 60.5269C664.462 60.9223 664.555 61.2126 664.447 61.5945C664.42 61.6898 664.249 61.6407 664.241 61.7078C664.213 61.9332 664.316 62.6149 664.287 62.7729C664.037 64.1947 663.718 65.3719 663.336 66.6494C663.295 66.7867 663.51 66.6491 663.467 66.7908C663.399 67.0191 663.17 66.8189 663.124 66.949C662.998 67.3131 663.273 67.3853 663.16 67.9064C662.789 69.6205 662.118 71.4973 661.773 73.2173C661.763 73.2712 661.927 73.2994 661.918 73.3579C661.902 73.4546 661.871 73.5488 661.834 73.6407C661.725 73.9021 661.557 74.1538 661.519 74.4063C661.437 74.9691 661.613 75.4238 661.549 75.9877C661.425 77.0928 661.23 78.1031 661.138 79.3137C661.063 80.3059 661.027 81.1887 660.928 82.3204C660.911 82.5182 660.893 82.7167 660.876 82.9167C660.594 86.2476 661.427 90.3374 662.332 93.1219C662.678 94.0087 662.878 94.8844 663.004 95.6613C663.026 95.7977 662.87 95.7738 662.884 95.8132C663.027 96.1866 663.226 96.1804 662.844 96.3938C663.015 96.849 663.349 96.94 663.426 97.4881C663.466 97.7762 662.951 97.6503 663.284 98.086C663.586 98.4757 663.756 97.9601 663.728 99.2687C663.727 99.3029 663.469 99.5237 663.597 99.7673C663.724 100.014 663.869 99.6712 664.06 100.282C664.146 100.552 664.219 100.831 664.29 101.129C664.527 102.13 664.866 103.481 665.489 104.695C665.533 104.787 666.111 105.649 666.271 105.805C666.574 106.103 666.733 105.93 667.016 106.38C667.054 106.44 667.083 106.502 667.107 106.566C667.152 106.648 667.254 106.906 667.289 106.993C667.324 107.19 667.241 107.422 667.377 107.604C667.397 107.629 667.646 107.562 667.704 107.73C667.741 107.835 667.888 107.956 667.984 108.09C667.986 108.092 667.99 108.098 667.992 108.099C668.147 108.305 668.33 108.601 668.387 108.857C668.431 109.026 668.013 109.885 667.915 109.938C667.6 110.129 667.256 109.71 667.38 110.324C667.272 110.166 667.153 110.015 667.032 109.858C666.852 110.031 666.67 110.202 666.488 110.371C666.649 110.535 666.806 110.702 666.957 110.867C666.895 110.921 666.831 110.973 666.768 111.027C666.332 110.369 666.325 110.93 665.854 110.767C665.948 111.156 666.018 111.54 666.078 111.918C665.986 111.736 665.868 111.525 665.786 111.362C665.424 111.574 665.737 111.874 665.709 111.978C665.576 112.462 664.901 111.202 664.287 111.008C664.176 110.962 664.072 110.945 663.981 110.976C664.014 111.041 664.048 111.106 664.083 111.171C664.207 111.417 664.316 111.648 664.415 111.886C664.303 111.856 664.19 111.828 664.078 111.803C664.063 111.622 664.027 111.443 663.971 111.256C663.716 110.537 663.453 109.819 663.348 109.058C663.298 108.985 663.248 108.912 663.201 108.839C663.034 108.933 662.868 109.026 662.702 109.123C662.629 109.003 662.558 108.88 662.49 108.757C662.879 108.847 662.999 108.73 663.054 108.504L663.081 108.569C663.11 108.376 663.077 108.102 663.112 107.772C663.451 107.964 663.509 108.379 663.863 108.172C663.087 107.321 662.928 105.975 662.191 105.129C662.008 104.917 661.516 105.12 661.33 104.504C661.392 104.503 661.491 104.469 661.567 104.455C660.991 103.591 660.637 102.989 660.586 101.954C660.583 101.872 660.582 101.787 660.583 101.701C660.412 101.805 660.24 101.909 660.069 102.015C660.08 102.031 660.09 102.046 660.1 102.062C660.237 102.276 660.381 102.483 660.527 102.683C660.273 102.93 660.062 102.725 660.286 103.453C660.478 104.043 660.497 103.648 660.637 103.778C660.828 103.949 660.659 104.219 660.875 104.397C661.042 104.533 661.212 104.256 661.324 104.725C660.942 104.668 660.548 104.603 660.16 104.528C660.189 104.388 660.221 104.248 660.253 104.108C660.378 104.195 660.5 104.279 660.626 104.362C660.329 104.017 660.055 103.677 659.765 103.284C660.27 103.288 659.964 102.893 659.846 102.657C659.661 102.29 660.067 102.542 659.952 102.302C659.923 102.242 659.875 102.185 659.82 102.125C659.654 101.956 659.415 101.77 659.404 101.433C659.664 101.62 659.785 101.265 659.992 101.285C660.2 101.306 660.339 101.746 660.459 101.268C660.122 100.465 659.572 101.53 659.333 100.983C659.049 100.321 660.23 99.9249 660.529 100.076C660.765 100.196 660.833 100.747 661.071 100.864C661.238 99.8175 660.516 99.9548 660.339 99.8114C659.706 99.2995 661.165 99.4486 660.532 98.8229C660.793 98.789 661.029 98.7569 661.279 98.7248C661.21 98.6121 661.131 98.5378 661.067 98.3972C660.642 98.9293 660.598 98.5655 660.564 98.3785C660.509 98.0862 660.345 98.5825 660.268 98.5171C660.059 98.3372 660.076 97.9925 659.891 98.2356C659.978 98.1261 660.064 98.0089 660.15 97.8965C659.959 97.5748 658.731 96.9837 659.089 97.6972C658.675 97.6997 658.823 97.4233 658.847 97.2229C658.872 97.0245 658.618 97.0776 658.632 96.9067C658.687 96.2314 659.208 96.5476 659.572 96.5861C659.145 95.7783 659.196 96.6227 658.729 95.4896C658.427 95.4656 658.28 96.0527 658.002 95.6814C658.393 95.4948 658.639 95.1497 658.625 94.6129C658.618 94.5235 658.604 94.4165 658.591 94.3198C658.459 94.2897 658.323 94.2488 658.192 94.2169C658.491 93.662 659.006 93.7496 658.256 93.1746C659.367 93.2836 658.641 93.1897 658.892 92.4512C658.943 92.3035 659.225 92.5456 659.287 92.3424C659.314 92.2487 659.109 92.0945 659.187 91.8685C659.225 91.7587 659.519 91.2275 659.274 90.9571C658.826 91.2875 658.287 90.757 657.981 91.364C657.891 90.365 657.553 89.7321 658.412 90.6996C658.518 90.4299 658.627 90.1609 658.739 89.8946C658.594 89.7455 658.45 89.5901 658.308 89.4355C658.715 89.3522 658.828 89.3624 658.673 88.7074C658.805 88.9857 658.942 89.2576 659.081 89.5302C659.166 89.5278 659.258 89.5546 659.337 89.5332C659.124 89.2099 658.936 88.2253 658.806 87.995C658.673 87.7638 658.689 88.2343 658.576 88.1755C657.642 87.6751 658.293 87.6557 658.11 87.2477C658.002 87.0045 657.95 87.6081 657.902 87.4776C657.724 86.9901 658.177 86.7274 658.163 86.2928C657.905 86.4601 657.643 86.6288 657.385 86.8006C657.371 86.3299 657.354 85.8062 657.264 85.3682C657.229 85.1958 657.033 85.3276 657.019 85.2996C656.948 85.1596 656.845 84.5827 656.846 84.521C656.855 84.0592 657.128 84.0548 657.164 83.6123C657.178 83.7878 657.193 83.9528 657.21 84.1234C657.65 84.2148 658.092 84.304 658.535 84.3877C658.576 83.9765 658.627 83.5667 658.69 83.1601C658.52 83.4478 658.356 83.7441 658.197 84.0446C657.87 83.5726 657.554 83.0823 657.256 82.571C657.244 82.5509 657.232 82.5303 657.22 82.5103C657.463 82.2833 657.704 82.055 657.944 81.8227C657.942 81.1372 657.04 81.2063 657.845 80.9438C657.794 80.7385 657.743 80.5327 657.693 80.3272C657.802 80.3639 657.911 80.4011 658.02 80.4378C657.969 80.1906 657.918 79.9436 657.866 79.6961C657.453 79.9236 657.02 80.1429 656.619 80.3655C656.568 79.8869 656.903 79.9005 656.992 79.8359C657.226 79.6631 656.954 79.2682 657.169 79.132C657.243 79.0863 657.431 79.5687 657.696 79.4253C657.75 79.3959 658.725 78.8364 658.539 78.4233C658.37 78.4184 658.16 78.4336 657.974 78.4366C657.911 77.89 658.815 77.6853 659.057 77.7758C658.906 77.478 658.928 77.0615 658.663 76.979C658.669 76.8329 658.676 76.6876 658.683 76.5416C659.327 76.7536 659.264 76.1432 658.704 76.0439C658.664 76.2922 658.625 76.5418 658.588 76.7909C657.914 76.5382 657.414 77.2629 658.22 75.7292C658.613 75.4646 658.113 76.2644 658.409 76.045C658.611 75.6327 658.527 75.2139 658.83 74.8409C659.213 74.3805 659.417 75.041 659.198 73.821C658.118 75.7449 658.33 74.3488 658.46 73.0269C658.495 72.6836 658.523 72.3432 658.51 72.0773C659.551 71.932 660.061 70.997 660.099 69.5424C659.795 69.624 659.832 70.095 659.687 70.327C659.541 70.5595 659.443 70.2498 659.247 70.538C659.05 70.8259 658.733 71.4642 658.476 71.7497C658.376 71.4444 658.309 70.0126 658.549 70.9993C658.961 70.3915 659.306 70.1437 659.546 69.3398C659.183 68.997 658.917 68.952 659.096 68.1522C659.565 68.7624 660.188 67.9584 660.742 68.303C660.466 68.8285 659.956 68.3751 659.598 68.6335C659.563 68.6648 659.584 69.2206 659.546 69.3398C660.197 68.9326 660.436 68.8007 660.985 69.272C661.018 68.8879 661.153 68.6753 660.862 68.5694C661.011 68.5231 661.159 68.4763 661.307 68.4314C661.333 68.3099 661.348 68.1982 661.382 68.0707C660.889 68.1376 661.248 67.8624 661.105 67.5686C660.961 67.2743 660.525 67.5144 660.685 66.8419C660.525 67.0398 660.384 67.222 660.231 67.4141C660.221 66.9526 660.212 66.4891 660.204 66.0273C659.853 66.2637 659.283 66.8228 658.925 66.7162C659.111 66.5496 659.04 65.8092 659.049 65.7297C659.083 65.4313 659.273 65.6448 659.284 65.6243C659.507 65.1979 659.521 64.8048 659.908 64.7176C659.836 64.3378 659.987 64.1046 660.065 63.7407C660.107 63.5411 659.844 63.5188 659.919 63.4146C660.422 62.7197 660.586 63.5281 660.296 61.8988C660.078 62.0404 659.856 62.1737 659.636 62.3121C659.608 62.1294 659.577 61.9512 659.547 61.7687C659.604 61.6644 659.662 61.5609 659.718 61.4572C660.103 61.5437 660.489 61.6318 660.874 61.7184C660.922 61.5997 660.969 61.4795 661.017 61.3594C661.009 61.5821 661.001 61.8005 660.992 62.0228C661.055 62.0573 661.12 62.0903 661.183 62.1249C661.359 61.8309 661.533 61.5383 661.706 61.2414C661.573 61.2073 661.439 61.1724 661.305 61.1383C661.639 60.4632 661.758 60.4612 661.511 59.7141C661.611 59.1877 661.11 58.6699 660.914 58.3437C661.006 58.248 661.098 58.1513 661.189 58.054C661.085 57.9703 660.982 57.8869 660.877 57.8054C661.052 57.6929 661.226 57.5729 661.399 57.4557C661.048 57.3401 660.944 57.2897 660.753 57.795C660.335 57.5552 660.629 56.6913 660.798 56.3335C660.929 56.0651 661.283 56.3936 661.331 56.3632C661.494 56.2557 661.382 55.7773 661.408 55.6839C661.525 55.2713 661.503 54.9815 661.567 54.6114C661.58 54.5389 661.799 54.3227 661.808 54.3009C661.84 54.1663 661.918 53.8146 661.915 53.7772C661.905 53.5158 661.873 53.3237 661.834 53.1957C661.586 52.2429 661.051 53.8802 660.908 52.0881C660.78 52.1631 660.652 52.2351 660.524 52.3117C660.497 52.1552 660.474 51.9983 660.451 51.8455C660.546 51.6418 660.772 51.8551 660.573 51.4899C660.742 51.5005 660.911 51.5116 661.079 51.5229C660.975 51.3677 660.873 51.2176 660.771 51.06C661.33 50.7543 661.389 49.8312 662.071 49.8329C662.305 49.8338 662.596 50.4826 662.815 50.1098C662.84 49.817 662.58 50.0352 662.555 49.9188C662.377 49.0787 662.758 49.0765 662.607 48.7298C662.434 48.6972 662.257 48.665 662.082 48.6361C662.109 48.4968 662.133 48.3554 662.154 48.2114C662.038 48.203 661.922 48.1938 661.806 48.1876C661.825 48.3099 661.844 48.4478 661.855 48.5596C661.43 48.4506 660.864 47.2395 661.364 47.6146C661.576 47.773 661.611 48.1966 662.043 47.8141C661.872 47.4389 661.646 47.0238 661.383 46.6835C661.474 46.6208 661.566 46.5579 661.656 46.4935C661.289 45.9996 661.194 46.7066 660.975 46.804C660.917 46.7113 660.855 46.6202 660.789 46.5334C660.784 46.5263 660.779 46.5191 660.773 46.5119C660.833 46.4093 660.897 46.3044 660.953 46.2018C660.809 46.2922 660.44 46.4496 660.36 46.0607C660.309 45.8099 660.873 45.887 660.574 45.5415C660.372 45.717 660.193 46.0271 659.844 45.6634C660.045 45.4667 660.216 45.2673 660.432 45.0695C659.853 44.7068 660.022 44.2042 659.29 43.8338C658.811 43.5853 657.942 43.7273 658.358 42.7044C658.086 42.4638 658.021 42.751 657.904 42.7406C657.365 42.7112 657.289 42.1248 657.203 42.0519C656.765 41.6731 656.449 41.7221 656.063 41.4992C656.025 41.4765 655.986 41.45 655.946 41.4198C655.937 41.619 655.919 41.8061 655.907 41.9996C655.933 41.9871 655.959 41.9752 655.984 41.9643C656.402 41.7914 656.66 41.8626 657.166 42.1497C656.962 42.1004 656.754 42.0659 656.55 42.0453C656.535 42.2085 656.516 42.3714 656.493 42.532C657.403 42.5179 657.665 42.8689 657.496 42.9808C657.33 43.1152 656.808 43.1204 656.213 43.0577C656.199 42.7436 656.152 42.4255 656.085 42.1085C656.04 42.1217 655.996 42.1341 655.953 42.1453C655.1 42.3588 654.741 41.932 653.813 41.6821C653.697 41.6515 653.24 41.7471 653.054 41.7246C653.057 41.7261 653.059 41.7274 653.062 41.7289C652.901 41.9861 653.035 42.1398 653.011 42.39C652.906 42.4041 652.801 42.4189 652.697 42.4333C652.506 42.2076 652.61 42.0653 652.165 42.0382C652.193 42.2356 652.22 42.4335 652.248 42.6309C651.769 42.5589 651.491 42.3045 651.033 42.325C651.118 42.2651 651.203 42.2054 651.289 42.1458C650.349 41.8176 651.283 40.825 650.466 41.2689C650.432 41.1657 650.4 41.0618 650.366 40.9586C650.675 40.9774 650.985 40.9992 651.292 41.0218C651.319 40.8862 651.346 40.7504 651.372 40.6146C651.039 40.6053 650.701 40.5995 650.367 40.5951C650.619 40.5364 650.875 40.4792 651.13 40.4234C650.758 40.3009 650.383 40.1807 650.006 40.0647C650.347 40.6223 649.811 40.6149 649.846 41.1272C649.235 40.6281 648.746 40.0073 647.651 40.2831C647.434 40.3406 647.533 40.6946 646.954 40.2401C647.071 40.8025 646.332 41.0436 646.421 41.5795C646.619 41.5569 646.822 41.5475 647.016 41.5248C646.806 41.3314 646.782 40.8212 647.134 40.6859C647.587 40.5136 648.2 40.9188 648.223 40.3562C648.396 40.3978 648.562 40.429 648.729 40.4685C648.645 40.6004 648.562 40.7333 648.48 40.8657C648.983 40.6943 649.284 40.8032 649.47 41.1808C648.89 41.1917 648.314 41.2131 647.742 41.2517C647.823 41.2817 647.906 41.3123 647.987 41.3422C647.535 41.6695 647.94 42.0358 647.163 42.0661C647.176 41.9019 647.189 41.7376 647.203 41.5726C646.891 41.9929 646.138 41.9789 646.372 42.4896C646.154 42.3315 646.102 42.2338 645.981 42.5078C645.405 42.1288 644.974 41.6824 645.153 41.0852C644.924 41.1942 644.703 41.3096 644.493 41.4309C644.643 41.5718 644.786 41.7153 644.927 41.8619C644.548 41.8864 644.174 41.9307 643.819 42.0004C643.677 41.542 644.505 41.7292 644.217 41.353C644.156 41.2767 643.978 41.4897 643.917 41.4553C643.23 41.0716 644.222 41.2487 643.981 40.8976C643.309 40.9375 643.416 40.5458 643.095 40.639C642.981 40.6756 642.8 40.7883 642.5 41.0385C642.427 40.9188 642.354 40.7964 642.284 40.6767C641.848 40.8021 641.977 41.0828 641.628 41.2569C641.413 41.3652 640.949 40.9548 640.817 41.3906C640.796 41.471 641.428 41.9392 640.549 42.2284C639.869 42.4607 639.981 41.9218 639.553 41.9125C639.115 41.9062 638.548 42.8529 638.005 42.3015C638.234 42.3026 638.5 42.2419 638.742 42.2245C638.772 42.0567 638.802 41.8907 638.834 41.724C638.414 42.0987 637.822 42.1313 637.644 42.5924C636.774 42.4285 636.284 43.2426 636.755 43.655C636.917 43.4731 636.578 43.3632 636.936 43.3591C637.028 43.4651 637.121 43.5701 637.212 43.6767C636.729 43.9072 636.406 44.0963 636.42 43.6116C636.342 43.6436 636.263 43.6762 636.185 43.709C636.319 43.9789 636.457 44.2485 636.592 44.5179C636.525 44.5951 636.457 44.6731 636.391 44.7509C636.265 44.7478 636.137 44.7449 636.009 44.744C635.889 44.2625 636.106 44.104 635.237 44.3285C635.322 44.4692 635.406 44.6102 635.492 44.7507C634.791 44.9552 634.54 44.6326 633.817 45.1875C634.043 44.301 634.946 44.9276 634.3 43.9771C634.492 43.9386 634.687 43.903 634.878 43.8709C634.812 43.7159 634.745 43.5607 634.679 43.4059C633.858 44.009 633.29 45.8288 632.351 45.7322C632.353 45.8509 632.347 45.9612 632.355 46.0846C631.584 46.2209 632.117 47.0856 631.282 47.2008C631.194 47.2191 630.562 46.4952 630.039 47.2606C630.15 47.3115 630.321 47.4194 630.455 47.4933C630.283 47.6054 630.111 47.7208 629.943 47.8446C630.017 47.9341 630.092 48.0247 630.168 48.113C630.377 47.8605 630.595 47.6218 630.822 47.3947C630.693 47.6282 630.572 47.8676 630.46 48.1095C630.8 47.9212 630.887 47.8095 631.011 48.1364C630.911 48.3037 630.815 48.4752 630.725 48.6481C630.685 48.7245 630.645 48.8028 630.605 48.8823C630.655 48.9451 630.706 49.0075 630.757 49.0687C630.977 49.0637 631.197 49.0571 631.415 49.0634C631.452 49.0645 631.49 49.0661 631.528 49.0679C631.514 49.0809 631.501 49.0944 631.487 49.1075C631.001 49.5924 630.711 50.114 630.098 50.4164C629.992 50.4706 629.869 50.044 629.835 50.7418C629.691 50.6879 629.57 50.653 629.437 50.6054C629.503 51.5155 629.294 51.6896 628.711 52.3715C629.169 51.964 628.824 52.3511 628.924 52.5338C628.992 52.6581 629.103 52.3087 629.193 52.3868C629.282 52.4661 629.546 53.0546 629.731 52.6997C629.218 51.4597 630.328 51.6133 630.459 50.3117C630.481 50.5353 630.506 50.7623 630.535 50.9826C630.646 50.9343 630.744 50.8951 630.862 50.8434C630.414 51.3868 630.659 51.1371 630.675 51.4483C630.691 51.7618 630.61 52.2735 630.527 52.602C630.501 52.7059 630.347 52.5276 630.244 52.7469C630.173 52.898 630.313 53.4199 629.94 53.4032C629.695 53.3989 629.323 52.4758 628.996 53.4626C628.718 53.5785 628.938 53.1258 628.918 53.1055C628.688 52.9285 628.286 53.487 628.401 53.8375C628.412 53.8652 628.684 53.7023 628.691 53.9702C628.711 54.6052 628.393 54.8718 627.979 55.1839C628.346 55.3193 628.679 55.9056 628.43 56.4877C628.534 56.5384 628.639 56.5868 628.744 56.6365C628.702 56.5332 628.662 56.4292 628.622 56.3243C628.709 56.2345 628.781 56.1355 628.881 56.0527C628.855 56.6768 629.374 56.8493 629.523 57.1552C630.057 58.1793 628.732 57.4472 628.516 57.2226C628.631 57.1056 628.758 56.9973 628.88 56.8867C628.745 56.8795 628.608 56.8723 628.472 56.8644C628.27 58.3797 627.565 56.9749 627.223 57.7515C627.864 58.0343 627.871 58.5863 627.455 59.3466C627.459 59.431 627.461 59.5144 627.467 59.5993C627.564 59.6107 627.713 59.6061 627.777 59.6267C627.894 60.3341 627.298 60.6458 627.007 60.8097C626.938 60.846 626.887 60.8725 626.871 60.8913C626.492 61.3182 627.114 61.5274 627.133 61.6405C627.206 62.0966 626.958 62.2636 627.114 62.6866C627.283 63.1499 627.453 62.8063 627.648 62.9334C627.802 63.0328 627.862 63.4122 628.023 63.5525C627.897 63.5016 627.772 63.4432 627.644 63.3925C627.522 63.8968 627.392 64.3165 627.39 64.8757C628.324 65.4494 626.849 66.0821 628.056 65.7913C628.109 65.2534 628.228 64.9477 628.519 64.6359C628.583 64.9882 628.644 65.3382 628.704 65.686C628.576 65.7981 628.449 65.8797 628.32 66.0077C628.619 66.255 628.527 66.872 628.622 67.1067C629.067 68.2085 629.532 67.8377 628.773 68.8941C628.652 68.1691 628.258 68.1854 628.278 67.452C628.003 67.6273 628.078 67.9888 627.728 67.7681C627.846 68.4727 628.138 68.2308 628.421 68.491C628.664 68.7167 628.706 69.1903 629.006 69.1429C628.843 69.2019 628.685 69.2476 628.524 69.3091C628.557 69.7655 628.596 70.2224 628.662 70.6732C628.463 70.5034 628.267 70.3258 628.076 70.1461C628.026 70.2998 627.979 70.4639 627.934 70.6231C628.361 71.3271 628.371 72.5583 628.879 73.0694C629.104 73.2976 629.351 73.3241 629.68 72.9786C630.013 73.3984 629.919 73.5509 629.882 73.9395C629.985 73.906 630.072 73.8811 630.184 73.8405C630.302 74.1853 630.774 74.1705 630.879 74.4727C630.987 74.7763 630.749 75.0612 631.258 74.7209C631.241 74.9837 631.251 75.2311 631.247 75.4878C631.431 75.4962 631.612 75.5032 631.794 75.5091C631.855 75.701 631.916 75.8911 631.979 76.0825C632.267 75.9755 632.638 76.6234 632.998 76.7463C632.954 77.1838 632.19 77.817 632.798 78.2597C632.973 78.0862 633.148 77.9135 633.323 77.7402C633.391 77.9 633.461 78.06 633.531 78.2206C633.476 78.2804 633.421 78.3398 633.367 78.3996C633.33 78.3184 633.294 78.2387 633.258 78.1572C633.203 78.3014 633.147 78.4438 633.092 78.5874C633.411 78.6508 633.729 78.7131 634.048 78.7748C633.939 78.4153 633.83 78.0543 633.724 77.6949C634.14 77.9052 634.2 78.2499 634.597 78.402C634.553 78.8701 634.326 78.9077 633.961 79.0482C634.064 79.1192 634.168 79.1924 634.271 79.2637C633.94 79.4445 633.908 79.7438 633.465 79.1852C633.417 79.2907 633.375 79.3944 633.324 79.5019C633.413 79.58 633.394 79.6952 633.509 79.7664C633.822 79.9582 634.487 79.7354 634.642 79.5679C634.724 79.481 634.326 79.3687 634.462 79.2696C634.794 79.0274 635.171 79.7411 634.738 78.6153C635.181 78.7292 635.087 78.9204 635.303 79.2827C635.384 79.1684 635.466 79.0557 635.548 78.9423C635.628 79.1286 635.707 79.3147 635.786 79.5001C635.081 79.7603 635.822 81.0035 634.516 80.446C634.743 80.7523 634.968 81.0553 635.194 81.3615C635.089 81.3515 634.984 81.3397 634.878 81.3282C634.795 81.1763 634.708 81.0217 634.625 80.8708C634.658 81.1072 634.693 81.3449 634.728 81.5839C635.107 81.7989 635.393 81.8093 635.706 81.7769C635.753 81.7723 635.801 81.7667 635.85 81.761C635.839 81.7302 635.829 81.702 635.819 81.6764C635.642 81.2352 635.526 81.5232 635.213 81.2567C635.37 81.1383 635.492 81.0045 635.671 80.8962C635.579 81.1466 635.777 81.3721 635.981 81.5338C636.13 81.6525 636.288 81.7426 636.34 81.7895C636.724 82.1313 636.159 82.0966 636.38 82.358C636.599 82.618 637.043 82.7638 636.923 83.2316C637.088 83.0833 637.247 82.917 637.387 82.7701C637.788 83.1258 637.521 83.2153 637.529 83.2788C637.659 84.3042 638.316 84.362 638.944 85.1397C638.927 84.9972 638.902 84.857 638.878 84.7154C639.702 85.0564 639.298 84.7231 639.017 84.0952C639.357 84.6213 639.889 84.6851 640.242 85.0013C640.598 85.3153 640.825 86.1086 640.811 86.4352C640.28 85.9858 640.062 85.3151 639.594 84.7715C639.455 84.9669 639.342 85.1396 639.183 85.3461C639.811 85.4268 639.679 85.8146 639.697 85.9621C639.748 86.4006 640.092 86.1888 639.832 86.6154C639.959 86.5333 640.065 86.4647 640.183 86.387C640.554 87.1651 640.647 88.0685 641.344 88.4236C641.017 88.5853 640.696 88.7265 640.359 88.8872C640.718 89.1247 640.519 89.4764 640.634 89.7277C640.743 89.9775 641.001 89.8379 641.164 90.1216C641.169 90.1309 641.174 90.1407 641.178 90.1508C641.208 90.2125 641.047 90.3781 641.206 90.5181C641.365 90.6672 642.464 91.0549 641.615 91.2936C641.67 91.5919 641.697 91.8758 641.745 92.1709C641.636 91.8969 641.529 91.6265 641.424 91.352C641.263 91.6369 641.105 91.9232 640.948 92.2089C641.141 92.2 641.337 92.1907 641.527 92.181C641.893 92.78 641.692 93.3113 641.894 93.946C641.928 94.0527 642.247 93.7202 642.249 94.2266C642.247 94.7353 641.623 95.2059 642.016 95.9829C642.037 96.023 642.605 96.1906 642.276 96.5397C642.201 96.6183 642.038 96.351 641.949 96.5205C641.863 96.6947 641.855 97.3881 641.596 97.4657C641.689 97.4483 641.78 97.3954 641.872 97.3643C641.93 97.4742 641.987 97.5882 642.043 97.7037C641.88 97.7317 641.717 97.7599 641.555 97.7876C642.001 98.4096 642.66 98.7281 642.51 99.7552C642.734 99.449 642.957 99.1584 643.174 98.8463C643.001 98.7783 642.826 98.7125 642.652 98.649C642.683 98.1794 642.704 97.6956 642.718 97.2246C642.519 97.1705 642.32 97.1143 642.121 97.0612C642.131 96.9349 642.139 96.8116 642.148 96.6883C642.29 96.7009 642.43 96.7137 642.572 96.728C642.507 96.4864 642.439 96.2469 642.369 96.0077C643.253 96.3861 642.481 97.4103 643.149 97.2598C643.057 97.3819 642.962 97.5044 642.868 97.6277C643.202 97.6463 643.131 97.8768 643.114 98.2872C643.269 98.1799 643.42 98.063 643.576 97.9629C643.386 98.385 643.46 99.0709 643.393 99.4822C643.365 99.6642 643.116 99.4986 643.09 99.5532C642.959 99.8333 643.399 100.325 643.37 100.441C643.196 101.093 642.411 101.524 642.937 102.218C643.062 101.497 643.01 101.886 643.297 101.624C643.388 101.54 643.561 100.598 643.496 101.779C643.496 101.925 642.925 104.053 642.513 103.343C642.641 103.697 642.791 103.954 642.923 104.279C641.791 105.014 642.839 104.779 643.42 104.58C643.418 104.705 643.419 104.825 643.414 104.956C642.825 104.658 642.728 106.055 642.997 106.559C643.088 106.722 643.307 106.293 643.375 106.664C643.322 106.836 643.255 107.033 643.195 107.218C643.594 106.97 643.703 107.519 644.089 107.541C643.72 107.856 642.97 108.057 642.589 107.841C642.728 108.129 642.865 108.435 643.002 108.724C643.104 108.607 643.206 108.477 643.308 108.353C643.153 108.799 643.18 109.295 643.147 109.737C643.114 110.19 643.021 110.539 642.596 110.596C642.589 110.719 642.582 110.842 642.576 110.961C642.709 111.013 642.843 111.064 642.975 111.115C642.801 111.652 642.624 112.186 642.447 112.718C642.415 112.22 642.232 112.088 642.443 111.593C642.266 111.771 642.086 111.955 641.909 112.133C642.249 112.944 642.518 113.083 642.257 114.225C642.245 114.278 641.786 115.105 641.746 115.13C641.57 115.249 641.368 115.008 641.28 115.06C641.037 115.2 640.335 116.152 640.259 116.057C639.267 115.758 639.661 112.332 639.694 111.401C639.724 110.742 639.758 110.078 639.795 109.415C640.19 102.786 640.272 97.3726 638.754 90.4504C638.593 88.8371 637.56 87.0331 636.129 85.3339C636.07 85.2642 635.976 85.3914 635.947 85.366C635.765 85.2043 635.794 84.865 635.742 84.7882C635.631 84.6257 635.531 84.8515 635.439 84.7432C635.006 84.2341 634.578 83.7158 634.131 83.171C633.595 82.5182 633.056 81.8627 632.466 81.2157C632.395 81.1387 632.599 81.1018 632.456 80.9851C632.381 80.9258 631.981 80.8801 631.838 80.7209C631.34 80.1652 630.999 79.6307 630.486 79.0263C630.206 78.6959 629.807 78.1787 629.495 77.8006C629.358 77.6346 629.118 77.5354 628.98 77.3698C628.785 77.1333 629.023 77.0255 629.007 76.9789C628.932 76.7735 628.695 76.923 628.579 76.7631C628.363 76.4628 628.498 76.3362 628.201 75.9682C627.987 75.7061 627.407 75.1578 627.109 74.7848C627.046 74.6332 626.971 74.472 626.894 74.311C626.152 72.8945 625.928 71.583 625.752 70.7293C625.642 70.1273 625.904 70.0637 625.883 69.8282C625.816 69.0263 625.461 68.4646 625.416 67.7669C625.358 66.8418 625.539 66.0351 625.498 65.1723C625.491 65.0324 625.256 65.0805 625.24 64.9429C625.183 64.4394 625.087 63.8013 625.079 63.348C625.07 62.8501 625.395 62.6296 625.271 62.1463C625.234 62.0067 624.929 61.9993 624.862 61.7632C624.8 61.5455 624.847 61.3057 624.894 61.0822C624.922 60.8735 624.957 60.684 624.957 60.5361C624.96 60.0537 624.676 60.4913 624.685 59.8377C624.686 59.8106 624.902 59.7062 624.888 59.5703C624.854 59.1757 624.677 59.2111 624.71 58.6332C624.711 58.572 624.965 57.8376 624.976 57.7682C625.011 57.3338 625.199 56.4965 625.199 56.2449C625.194 55.3431 624.744 55.9594 625.593 55.3633C625.486 55.0075 625.384 54.6488 625.302 54.2672C625.4 54.529 625.855 53.6762 625.862 53.613C625.895 53.0599 625.534 53.2896 625.782 52.6402C626.13 53.6994 626.122 51.8229 626.261 51.4382C626.753 49.9137 627.44 48.6107 628.319 47.1993C628.526 46.8708 628.746 46.5514 628.976 46.2377C629.415 45.6314 629.969 44.8059 630.521 44.2866C630.648 44.1653 630.658 44.3668 630.771 44.2641C630.884 44.1619 630.643 44.1517 630.778 44.0393C631.631 43.3432 632.467 43.1189 633.019 42.25C633.09 42.2727 633.115 42.3119 633.214 42.323C633.657 41.5745 635.183 41.2615 635.683 41.086C636.475 40.7944 636.559 40.4865 637.132 40.2766C637.888 39.999 639.166 40.0115 638.379 39.4734C638.877 39.2452 639.366 39.0518 639.91 38.9369C639.97 38.9245 639.998 39.1287 640.023 39.1246C640.175 39.1011 640.166 38.9131 640.262 38.8713C640.521 38.759 640.158 39.1114 640.516 38.9257C640.711 38.8269 640.774 38.6376 641.339 38.457C641.687 38.3469 642.045 38.24 642.401 38.1405C646.516 37.1666 649.755 38.0005 652.84 38.4541C653.073 38.4942 652.951 38.2767 653.242 38.3377ZM642.224 113.394C642.17 113.332 641.872 113.318 641.816 113.459C641.683 113.794 641.686 114.301 641.619 114.677C641.96 114.686 641.982 113.713 642.224 113.394ZM643.137 112.254C642.975 112.88 642.777 112.743 643.056 113.373C642.941 113.393 642.831 113.408 642.715 113.431C642.676 113.19 642.556 113.046 642.641 112.733L642.641 112.734C642.658 112.673 643.034 112.178 643.137 112.254ZM663.606 111.881C663.865 112.035 664.112 112.19 664.367 112.374C664.308 112.571 664.245 112.768 664.182 112.965C663.992 112.576 663.814 112.227 663.606 111.881ZM645.112 106.141C645.088 106.711 645.061 107.25 645.026 107.811C644.672 107.337 644.658 106.552 645.112 106.141ZM661.554 105.411C661.861 106.185 662.197 106.944 662.541 107.691L662.541 107.692C662.35 107.806 662.167 107.566 662.124 107.959C662.013 107.73 661.905 107.499 661.795 107.266C661.846 107.325 661.897 107.386 661.948 107.445C661.988 107.352 662.03 107.259 662.07 107.167C661.801 107.194 661.898 107.054 661.863 106.775C661.647 106.957 661.431 107.14 661.216 107.324C661.155 107.003 661.097 106.679 661.043 106.356C661.104 106.324 661.165 106.293 661.226 106.261C661.098 106.188 660.969 106.115 660.84 106.039C660.903 105.976 660.965 105.915 661.028 105.853C660.914 105.744 660.801 105.634 660.687 105.523C660.854 105.407 661.052 105.67 660.793 105.164C661.047 105.25 661.3 105.332 661.554 105.411ZM659.019 102.303C659.003 102.34 658.987 102.377 658.972 102.414L658.972 102.415C659.056 102.511 659.139 102.605 659.223 102.696C659.108 102.792 658.994 102.888 658.881 102.987C659.104 103.336 659.337 103.669 659.576 103.987C659.168 104.073 659.024 103.4 658.647 103.091C658.631 102.777 658.673 102.533 658.765 102.36C658.852 102.216 658.976 102.122 659.135 102.07C659.097 102.147 659.058 102.225 659.019 102.303ZM663.469 103.839C663.292 103.838 663.116 103.87 662.94 103.883C663.207 104.15 663.368 104.842 663.7 104.511L663.701 104.512C663.718 104.488 663.63 103.861 663.469 103.839ZM662.539 103.808C662.227 103.23 661.993 103.054 661.719 103.545C661.886 103.738 662.056 103.929 662.229 104.114C662.331 104.011 662.435 103.908 662.539 103.808ZM644.14 99.4454C644.212 99.893 644.278 100.348 644.338 100.79C643.975 100.674 643.893 99.7633 643.968 99.2893C644.025 99.3407 644.082 99.3932 644.14 99.4454ZM659.41 101.976C659.356 102.039 659.302 102.1 659.248 102.164C659.081 101.975 658.915 101.781 658.75 101.591C658.928 101.509 659.106 101.428 659.283 101.346C659.325 101.558 659.367 101.768 659.41 101.976ZM657.665 97.0851C657.553 96.57 657.417 95.6807 658.003 96.0788C658.143 96.8693 658.639 97.5663 658.667 98.4821C659.152 98.1507 659.415 98.5884 659.767 99.1934C659.166 99.0735 658.888 98.3908 658.511 99.2519C658.714 99.2774 658.919 99.3063 659.122 99.3306C659.022 99.6251 658.923 99.9216 658.828 100.221C658.92 100.303 659.012 100.384 659.104 100.468C658.795 100.657 658.485 100.845 658.178 101.039C658.204 100.917 658.23 100.794 658.258 100.676C657.901 100.293 657.751 99.9139 657.594 99.3377C657.524 99.4029 657.456 99.4687 657.387 99.5351C657.466 99.2125 657.547 98.8914 657.629 98.5769C657.806 98.8063 658.005 99.0642 658.171 99.28C658.625 98.8043 658.215 98.1942 658.044 97.8792C657.811 97.453 658.078 97.5089 657.911 97.2014C657.884 97.1528 657.689 97.1857 657.665 97.0851ZM661.845 99.3407C661.343 99.4185 661.701 99.731 661.675 100.312C661.668 100.399 661.168 101.082 661.672 101.169C661.775 101.186 661.718 100.592 662.081 100.938C662.065 100.755 662.029 100.608 662.007 100.437C662.123 100.4 662.239 100.364 662.355 100.327C662.354 100.542 662.353 100.753 662.353 100.965C662.655 100.637 662.653 99.9727 662.203 99.7319C662.19 99.9091 662.177 100.082 662.166 100.259C662.057 99.9524 661.947 99.6508 661.845 99.3407ZM657.249 99.3094L657.248 99.3102C656.965 99.7706 656.958 98.4079 656.587 99.3804C656.518 99.2039 656.448 99.0273 656.38 98.8526C656.568 98.7716 656.755 98.691 656.943 98.6102C657.044 98.8381 657.146 99.0734 657.249 99.3094ZM659.769 99.1957L659.767 99.1934L659.769 99.1937L659.769 99.1957ZM657.001 95.627C657.224 95.6606 657.448 95.7047 657.674 95.7599C657.301 95.8356 657.347 95.973 657.156 96.2827C657.109 96.0502 657.059 95.8319 657.001 95.627ZM659.468 94.5828C659.554 94.879 659.624 95.1796 659.683 95.4806C659.817 95.456 659.951 95.4313 660.084 95.4075C659.89 95.1207 659.685 94.8432 659.468 94.5828ZM660.606 93.8086C660.204 91.8573 659.904 92.8208 660.311 93.9345C660.352 94.0324 660.394 94.1313 660.438 94.2306C660.349 94.303 660.259 94.3732 660.17 94.4433C660.581 95.0344 660.897 95.6168 661.394 95.4661C661.361 95.0888 661.116 95.3158 661.025 95.1859C660.701 94.7313 660.745 94.3205 660.478 93.8679C660.463 93.8453 660.445 93.8214 660.425 93.7964C660.488 93.8029 660.546 93.8066 660.606 93.8095L660.606 93.8086ZM656.703 90.7263C656.81 90.8425 656.954 90.9594 657.076 91.0755C656.962 91.6975 657.206 91.8152 657.527 92.2276C657.288 92.2723 657.05 92.3164 656.811 92.3607L656.811 92.3626C656.816 92.4873 656.799 92.6193 656.821 92.7468C656.487 92.3367 656.878 92.177 656.676 91.7858C656.477 91.3992 656.202 91.1707 656.703 90.7263ZM658.982 92.217L658.982 92.2189C658.896 92.218 658.809 92.2171 658.724 92.2154C658.584 92.0307 658.447 91.8464 658.311 91.6602C658.475 91.6603 658.639 91.6595 658.803 91.6582C658.861 91.8475 658.92 92.0312 658.982 92.217ZM639.993 87.1313C639.844 87.073 639.641 87.4773 639.35 87.07C639.539 87.377 639.731 87.6532 639.899 87.9593C639.786 87.9746 639.672 87.9921 639.559 88.0092L639.559 88.0102C639.582 88.1225 639.602 88.2363 639.62 88.3476C639.924 88.284 640.229 88.2248 640.535 88.1713C640.489 88.0599 640.441 87.9498 640.39 87.8402C640.333 87.8787 640.275 87.9209 640.217 87.9613C640.171 87.9923 640.125 88.0229 640.079 88.0535C640.238 87.9203 640.294 87.255 639.993 87.1313ZM656.432 88.9471C656.2 88.2044 656.807 88.0868 657.138 88.2207C657.201 88.6376 657.272 89.0577 657.348 89.4644L657.348 89.4654C656.479 89.8124 656.989 89.6787 656.704 89.0621C656.607 88.8465 656.475 89.0838 656.432 88.9471ZM656.255 88.3719C656.283 88.5349 656.279 88.5511 656.275 88.7597L656.276 88.7589C656.273 88.8405 656.248 89.5361 656.094 89.4817C656.046 89.1423 656.005 88.7769 655.969 88.427C656.064 88.4066 656.159 88.3949 656.255 88.3719ZM656.678 85.481C656.846 86.1046 656.935 86.553 656.728 87.1668L656.726 87.1685C656.713 87.2034 656.531 87.0488 656.491 87.0965C656.525 87.2186 656.574 87.3452 656.614 87.4673C656.478 87.4948 656.342 87.5216 656.207 87.5494C656.218 87.1909 656.235 86.8306 656.257 86.472C656.179 86.5285 656.102 86.587 656.024 86.6442C655.967 86.3411 655.914 86.0367 655.866 85.7294C656.093 85.8309 656.322 85.9302 656.551 86.026C656.592 85.8437 656.633 85.6618 656.678 85.481ZM638.058 82.9293C639.316 83.0086 639.286 84.37 638.522 83.7578C638.332 83.6091 638.242 83.1263 638.058 82.9293ZM637.881 81.3992C637.82 81.5763 639.179 83.4462 638.294 82.6587C638.169 82.5442 637.766 81.5251 637.27 81.5997C637.454 81.4967 637.675 81.4616 637.881 81.3992ZM635.676 79.8043C636.284 79.9519 636.231 79.3873 636.548 80.322C636.44 80.3373 636.334 80.3536 636.227 80.3701C636.041 80.181 635.859 79.9932 635.676 79.8043ZM655.631 82.1294C655.697 82.2117 655.732 82.3136 655.743 82.4261C655.768 82.7521 655.647 83.1526 655.502 83.4517L655.501 83.4527C655.457 83.5433 655.101 83.742 655.131 83.433C655.184 82.9255 655.747 82.7291 655.404 82.4325C655.413 82.4205 655.421 82.4082 655.429 82.3961C655.498 82.3098 655.562 82.2192 655.631 82.1294ZM655.68 81.1729C655.835 80.9127 656.233 81.0678 656.096 81.3985L656.097 81.3986C656.039 81.5364 655.739 81.2331 656.024 81.7666C655.76 81.8486 655.52 81.9283 655.264 82.0072C655.271 81.8843 655.274 81.7722 655.282 81.6427C655.693 81.7652 655.527 81.4325 655.68 81.1729ZM630.668 75.4411C631.142 75.7921 630.715 76.1484 631.308 76.3869C631.2 76.0912 631.094 75.7934 630.99 75.4973C630.884 75.4803 630.774 75.4596 630.668 75.4411ZM657.792 78.9463C657.576 78.7879 657.358 78.631 657.142 78.4715C657.299 78.215 657.458 77.9593 657.616 77.7045C657.672 78.1199 657.732 78.5338 657.792 78.9463ZM657.293 73.6723C657.583 73.6436 657.955 74.3402 658.01 74.7392C657.73 74.7691 657.45 74.8014 657.171 74.8354C657.584 74.3543 657.449 74.2408 657.293 73.6723ZM629.171 69.0801C629.114 69.1133 629.064 69.1334 629.02 69.1424C629.016 69.1426 629.011 69.1428 629.007 69.1431C629.061 69.1236 629.116 69.103 629.171 69.0801ZM627.103 67.2758C628.472 68.1144 627.562 66.1172 627.128 66.5302C627.109 66.5449 627.245 67.1823 627.103 67.2758ZM626.7 63.1923C626.7 63.314 626.864 63.3966 626.806 63.5306C626.748 63.6665 626.536 63.714 626.544 63.9611C627.477 63.9803 626.985 63.1336 626.7 63.1923ZM628.174 63.608C628.115 63.611 628.065 63.5892 628.023 63.5525C628.073 63.5724 628.124 63.5914 628.174 63.608ZM659.132 67.9939C658.996 67.5604 659.577 67.1754 659.819 67.4338C659.795 67.5661 659.766 67.7128 659.734 67.865L659.733 67.8669C659.442 67.0799 659.302 68.5345 659.132 67.9939ZM627.98 59.8753C627.994 59.7733 628.029 59.0203 628.08 60.043C628.382 59.9928 628.693 60.0246 628.988 60.0011C629.048 60.1953 628.91 60.3813 628.785 60.5808C628.684 60.7691 628.587 60.9582 628.617 61.1534C628.718 61.7991 629.351 62.0675 628.577 62.274C628.329 61.7453 628.212 60.8275 628.666 60.6387C628.665 60.6246 628.663 60.6107 628.661 60.5971C628.594 60.1581 628.213 60.0475 628.064 60.4672C628.082 60.5395 628.099 60.6064 628.114 60.668C628.447 62.1442 627.578 61.0888 628.036 62.5669C628.148 62.575 628.272 62.6291 628.374 62.6088C628.036 63.1328 627.809 62.3947 627.679 62.3365C627.319 62.1603 627.272 62.8013 627.323 62.0228L627.322 62.0227C627.354 61.5148 627.363 61.3962 627.331 60.9274C627.782 61.0398 628.054 61.9598 627.987 60.684C627.986 60.6726 627.986 60.6608 627.985 60.649C627.984 60.6317 627.728 60.6991 627.74 60.4832C627.744 60.4155 627.934 60.1887 627.98 59.8753ZM660.558 63.9351C660.044 63.9283 660.225 63.8042 660.184 64.3556C660.173 64.5139 659.694 65.6738 660.222 65.2675C660.328 64.8367 660.446 64.3827 660.558 63.9351ZM626.874 59.4098C627.05 58.6569 626.921 58.5414 626.448 58.8057C626.415 58.8256 626.498 59.1351 626.432 59.1665C626.364 59.1976 625.931 58.932 626.135 59.427C626.771 59.801 626.447 59.1762 626.694 59.0253C626.753 59.1532 626.812 59.2854 626.874 59.4098ZM628.262 58.5513C628.478 58.8644 628.708 59.1639 628.947 59.4413C628.569 59.4485 628.219 59.2965 628.019 58.806C628.1 58.7196 628.18 58.6344 628.262 58.5513ZM661.742 63.234C661.147 63.3718 661.393 63.6326 660.946 64.1115C661.153 64.0554 661.36 63.9996 661.568 63.9433C661.455 64.243 661.343 64.5417 661.229 64.8405C661.276 64.8907 661.323 64.9412 661.37 64.9915C661.47 64.8993 661.579 64.8055 661.671 64.713C661.768 64.5431 661.54 64.5864 661.549 64.5683C661.769 64.1307 661.879 64.0889 661.859 63.4809C661.821 63.3985 661.781 63.3165 661.742 63.234ZM627.823 56.0618C627.656 56.4243 627.498 56.7955 627.352 57.1741C628.253 57.4078 628.119 56.9921 627.823 56.0618ZM660.384 60.5586C660.524 59.6792 660.984 58.7465 661.418 59.725C661.261 60.0078 661.101 59.9023 660.902 60.0358L660.903 60.036C660.851 60.0717 660.773 60.2673 660.751 60.3439C660.864 60.3363 660.978 60.3205 661.092 60.31C661.214 61.075 659.999 62.2331 659.992 60.3983C660.123 60.4518 660.253 60.5046 660.384 60.5586ZM660.352 57.561C660.396 57.9102 660.432 58.2675 660.462 58.6251L660.461 58.6249C660.379 58.6205 660.296 58.6178 660.214 58.6133C660.311 58.1104 660.008 57.9383 660.352 57.561ZM662.085 58.2161C662.292 58.7013 662.598 58.6681 662.972 58.4948C662.94 58.4082 662.906 58.3234 662.873 58.238C662.61 58.2309 662.348 58.2233 662.085 58.2161ZM663.434 57.9287C663.273 57.4592 663.172 57.3095 662.804 57.4743L662.803 57.476C662.939 57.6524 663.074 57.8328 663.207 58.0167C663.282 57.988 663.358 57.9592 663.434 57.9287ZM632.029 49.434C632.063 50.2658 632.048 50.4883 631.389 51.1446C631.326 50.9755 631.262 50.8087 631.203 50.6371C631.386 50.5616 631.568 50.4927 631.751 50.4248L631.752 50.4238C631.642 50.3348 631.532 50.2454 631.423 50.1566C631.618 49.9036 631.819 49.6592 632.023 49.4299C632.025 49.4278 632.026 49.425 632.028 49.4229C632.028 49.4263 632.029 49.4305 632.029 49.434ZM629.502 47.9108C629.6 47.6407 629.584 47.4784 629.2 47.6502C629.177 47.6609 629.158 47.676 629.143 47.6949C628.958 47.9233 629.374 48.6834 628.51 48.9965C628.614 49.2415 628.739 49.427 628.854 49.6438C628.623 49.6256 628.383 49.6195 628.154 49.6042L628.154 49.6052C627.943 50.2348 628.369 49.9577 628.571 50.0679C628.653 50.1133 628.314 50.4849 628.564 50.4323C628.986 50.3405 629.216 49.394 629.607 49.5892C629.328 49.822 629.165 50.4588 629.507 50.4065C629.879 50.3548 629.661 49.5827 630.077 49.3636C629.204 49.5349 629.94 48.6024 630.47 48.766C630.467 48.6331 630.452 48.5366 630.427 48.4694C630.389 48.3569 630.323 48.325 630.239 48.3549C630.076 48.4079 629.846 48.7066 629.675 49.0501C629.521 48.4788 629.412 49.1407 629.066 49.0786C629.077 48.7977 629.379 48.2543 629.502 47.9108ZM660.854 54.752C661.007 55.0842 661.146 55.4395 661.272 55.8014C661.164 55.8455 661.055 55.8891 660.947 55.9319L660.947 55.9329C660.846 55.4836 660.727 55.0389 660.585 54.6325C660.675 54.6724 660.765 54.7109 660.854 54.752ZM632.919 46.2108C632.99 46.3339 633.071 46.431 633.129 46.5944C632.623 46.5603 632.527 47.6172 632.461 47.6236C631.966 47.7128 632.497 46.4101 632.919 46.2108ZM661.028 52.3424C661.671 52.1948 662.13 51.6665 661.058 51.6779C660.889 52.1899 661.466 51.8842 661.028 52.3424ZM661.131 49.9941L661.131 49.9952C661.05 50.095 660.887 49.9378 660.822 50.087C660.759 50.2352 660.945 50.4896 660.689 50.4465C660.64 50.2543 660.584 50.0552 660.531 49.8677C660.133 50.5182 660.589 51.1485 660.031 51.2039C660.127 50.5546 660.026 50.0591 659.811 49.5434C660.257 49.5053 660.698 50.0414 661.079 49.6386C661.097 49.7549 661.117 49.8789 661.131 49.9941ZM634.332 45.1823C634.624 45.3104 633.987 45.8654 634.56 45.9634C633.572 46.2172 634.002 47.1423 633.221 46.1466C633.616 45.736 633.58 46.1108 633.785 46.2648C633.628 46.1033 634.081 45.1378 634.261 45.1632L634.332 45.1823ZM636.818 45.0191C636.89 45.3827 636.947 45.8878 636.479 45.9271C636.417 45.9341 636.339 45.235 636.01 45.3189C636.245 45.094 636.504 44.9171 636.758 44.7246L636.818 45.0191ZM660.969 47.7322C660.899 48.4322 661.302 48.351 661.639 48.795C661.865 49.1028 661.832 49.5551 662.253 49.6452C661.84 49.7791 661.511 49.0361 661.519 49.8C661.228 49.6822 661.064 49.4675 660.982 49.0521C661.078 48.9702 661.172 48.8864 661.266 48.8016C660.983 48.8379 660.862 48.742 660.62 48.5622L660.621 48.5624C660.475 47.9854 660.562 48.0191 660.969 47.7322ZM660.62 48.5622C660.673 48.7825 660.794 49.0051 660.718 49.2319C660.42 49.2033 660.623 48.7605 660.236 49.1138C660.208 48.9709 660.177 48.8329 660.143 48.7006C660.337 48.7528 660.447 48.6105 660.618 48.563L660.62 48.5622ZM639.221 43.4132C640.617 42.7312 639.989 42.1523 641.694 42.7453C640.615 43.0664 641.199 43.4253 640.727 44.0403C640.483 43.8002 640.855 42.9065 640.38 42.9317C639.761 43.5237 639.193 44.0975 638.524 44.6541C638.569 44.6918 638.615 44.7296 638.66 44.7676C638.765 44.6797 638.871 44.593 638.979 44.5061C638.907 44.6976 638.841 44.8867 638.774 45.0803C638.798 44.706 638.455 45.073 638.347 44.7091C638.298 44.5465 638.388 44.2446 638.434 44.0464C638.103 44.1067 637.767 44.1842 637.435 44.2617C637.525 44.0648 637.62 43.8668 637.716 43.6708C637.841 43.6045 637.969 43.5398 638.095 43.4751L638.098 43.4747C638.046 43.6258 637.997 43.7771 637.947 43.9284C638.102 43.9105 638.251 43.8834 638.409 43.8756C638.552 43.2617 638.77 43.6429 639.221 43.4132ZM639.644 42.7137C639.432 42.8411 639.224 42.9706 639.017 43.1018C639.115 42.6642 638.585 42.7813 639.399 42.5083C639.481 42.5763 639.563 42.6451 639.644 42.7137ZM642.037 42.7279C641.978 42.7518 641.916 42.7651 641.853 42.7627C641.919 42.7517 641.981 42.7404 642.037 42.7279ZM642.904 42.1003C643.387 42.1223 642.969 42.5923 642.905 42.8209C642.642 42.5437 642.417 42.6445 642.037 42.7279C642.374 42.5926 642.69 42.1082 642.795 42.1015L642.904 42.1003ZM638.635 41.0856C638.429 41.1852 638.332 41.3443 638.085 41.4106L638.086 41.4117C638.059 41.4184 637.645 41.1764 637.796 41.4434C638.402 41.9604 638.838 41.2727 638.635 41.0856ZM645.02 42.4079C645.836 42.0918 644.92 42.5616 645.708 42.5691C645.593 42.6429 645.48 42.7216 645.372 42.799C645.191 42.6735 645 42.535 644.815 42.4293C644.878 42.1393 645.012 42.4045 645.021 42.4071L645.02 42.4079ZM659.142 44.7695C658.502 43.9757 660.296 44.2606 659.561 44.9026C659.54 44.908 659.161 44.7868 659.142 44.7695ZM643.209 41.0459C643.538 41.1663 643.539 41.5701 643.444 41.8915C643.425 41.9475 643.401 42.0015 643.374 42.0519C643.284 41.9372 643.193 41.8223 643.101 41.7091C642.969 41.8111 642.836 41.9149 642.705 42.0177C642.702 41.6977 642.71 41.3735 642.714 41.0523C642.92 40.9992 643.092 41.0014 643.209 41.0459ZM654.376 42.4789C654.067 42.7372 653.757 42.9919 653.446 43.2391C652.896 43.3182 652.47 42.6797 652.897 42.529C653.414 42.3493 653.858 42.7253 654.376 42.4789ZM650.183 41.4366C650.292 41.4594 649.889 41.6894 650.328 41.705C649.98 41.8394 649.658 41.9521 649.327 42.0836C649.25 41.9392 649.17 41.795 649.092 41.651C649.008 41.7281 648.925 41.8053 648.843 41.8829C648.908 41.6936 648.967 41.5077 649.036 41.3156C649.521 41.793 649.697 41.3378 650.183 41.4366ZM642.435 40.7094C642.643 40.6377 642.853 40.568 643.057 40.5018C643.093 40.4905 643.128 40.4794 643.164 40.4685C643.104 40.3839 643.041 40.3 642.978 40.2168C642.938 40.1598 642.898 40.1024 642.857 40.0454C642.714 40.2652 642.574 40.4873 642.435 40.7094ZM643.381 39.3811C643.587 39.8414 643.774 40.308 643.949 40.7782C644.007 40.5967 644.072 40.4156 644.136 40.2356C644.361 40.2208 644.585 40.2144 644.809 40.2129C644.803 40.0748 644.798 39.9352 644.793 39.797C643.802 40.0822 643.993 39.6695 643.381 39.3811ZM653.756 40.5617C652.411 40.5349 651.101 40.6968 651.795 41.8222C651.899 41.8062 652.002 41.7912 652.106 41.7754C652.199 41.2943 652.522 41.6173 653.051 41.7231C653.16 41.5442 653.462 41.5498 653.546 41.3966C653.707 41.1001 653.405 40.8199 653.756 40.5617ZM659.472 42.5412C659.095 42.203 658.519 41.4952 658.009 41.6142C657.738 41.6854 658.336 42.2248 657.714 42.2177C658.132 42.4312 658.287 42.4099 658.379 42.1332C658.491 42.1716 658.604 42.2141 658.714 42.2589C658.723 42.3338 658.732 42.4088 658.738 42.483C658.855 42.4321 658.973 42.3841 659.092 42.3365C659.171 42.4335 659.248 42.5329 659.321 42.6323C659.37 42.6003 659.423 42.5809 659.472 42.5412ZM656.726 40.9728C656.486 40.8972 656.304 40.8781 656.165 40.8915C655.933 40.9302 655.842 41.0886 655.715 41.313C655.841 41.3166 655.967 41.3195 656.092 41.3229C656.282 41.3319 656.473 41.3516 656.661 41.3817C656.684 41.2457 656.706 41.11 656.726 40.9728Z" fill="#A6A4A4"/>
</svg>
